<?xml version="1.0" encoding="UTF-8"?>
<svg xmlns="http://www.w3.org/2000/svg" width="1200" height="900" viewBox="0 0 1200 900">
  <style>
    .entity { fill:#ffffff; stroke:#444; stroke-width:2px; rx:10; ry:10; }
    .header { fill:#e8f0ff; stroke:none; }
    .text { font: 14px sans-serif; fill:#222; }
    .title { font: bold 16px sans-serif; fill:#1c3b6b; }
    .line { stroke:#444; stroke-width:2px; marker-end:url(#arrow); }
    .pk { fill:#555; font: italic 12px sans-serif; }
  </style>
  <defs>
    <marker id="arrow" markerWidth="10" markerHeight="7" refX="10" refY="3.5" orient="auto">
      <path d="M0,0 L10,3.5 L0,7 Z" fill="#444" />
    </marker>
  </defs>

  <g transform="translate(40,20)">
    <rect x="0" y="0" width="280" height="120" class="entity" />
    <rect x="0" y="0" width="280" height="30" class="header" />
    <text x="10" y="20" class="title">users</text>
    <text x="10" y="50" class="text">id (PK)</text>
    <text x="10" y="70" class="text">name</text>
    <text x="10" y="90" class="text">email</text>
    <text x="10" y="110" class="text">password</text>
  </g>

  <g transform="translate(340,20)">
    <rect x="0" y="0" width="260" height="120" class="entity" />
    <rect x="0" y="0" width="260" height="30" class="header" />
    <text x="10" y="20" class="title">guru</text>
    <text x="10" y="50" class="text">id (PK)</text>
    <text x="10" y="70" class="text">nip</text>
    <text x="10" y="90" class="text">nama</text>
    <text x="10" y="110" class="text">mapel_id (FK)</text>
  </g>

  <g transform="translate(680,20)">
    <rect x="0" y="0" width="260" height="120" class="entity" />
    <rect x="0" y="0" width="260" height="30" class="header" />
    <text x="10" y="20" class="title">mapel</text>
    <text x="10" y="50" class="text">id (PK)</text>
    <text x="10" y="70" class="text">nama_mapel</text>
    <text x="10" y="90" class="text">jurusan_id (FK)</text>
  </g>

  <g transform="translate(340,160)">
    <rect x="0" y="0" width="260" height="120" class="entity" />
    <rect x="0" y="0" width="260" height="30" class="header" />
    <text x="10" y="20" class="title">kelas</text>
    <text x="10" y="50" class="text">id (PK)</text>
    <text x="10" y="70" class="text">nama_kelas</text>
    <text x="10" y="90" class="text">guru_id (FK)</text>
  </g>

  <g transform="translate(680,160)">
    <rect x="0" y="0" width="260" height="120" class="entity" />
    <rect x="0" y="0" width="260" height="30" class="header" />
    <text x="10" y="20" class="title">siswa</text>
    <text x="10" y="50" class="text">id (PK)</text>
    <text x="10" y="70" class="text">nis</text>
    <text x="10" y="90" class="text">nama</text>
    <text x="10" y="110" class="text">kelas_id (FK)</text>
  </g>

  <g transform="translate(40,260)">
    <rect x="0" y="0" width="260" height="100" class="entity" />
    <rect x="0" y="0" width="260" height="30" class="header" />
    <text x="10" y="20" class="title">orangtua</text>
    <text x="10" y="50" class="text">id (PK)</text>
    <text x="10" y="70" class="text">user_id (FK)</text>
    <text x="10" y="90" class="text">no_telp</text>
  </g>

  <g transform="translate(340,260)">
    <rect x="0" y="0" width="260" height="80" class="entity" />
    <rect x="0" y="0" width="260" height="30" class="header" />
    <text x="10" y="20" class="title">orangtua_siswas</text>
    <text x="10" y="50" class="text">id (PK)</text>
    <text x="10" y="70" class="text">orangtua_id (FK)</text>
    <text x="10" y="90" class="text">siswa_id (FK)</text>
  </g>

  <g transform="translate(680,280)">
    <rect x="0" y="0" width="260" height="100" class="entity" />
    <rect x="0" y="0" width="260" height="30" class="header" />
    <text x="10" y="20" class="title">absensi</text>
    <text x="10" y="50" class="text">id (PK)</text>
    <text x="10" y="70" class="text">siswa_id (FK)</text>
    <text x="10" y="90" class="text">tanggal</text>
  </g>

  <g transform="translate(40,380)">
    <rect x="0" y="0" width="260" height="120" class="entity" />
    <rect x="0" y="0" width="260" height="30" class="header" />
    <text x="10" y="20" class="title">materi</text>
    <text x="10" y="50" class="text">id (PK)</text>
    <text x="10" y="70" class="text">judul</text>
    <text x="10" y="90" class="text">guru_id (FK)</text>
    <text x="10" y="110" class="text">kelas_id (FK)</text>
  </g>

  <g transform="translate(340,420)">
    <rect x="0" y="0" width="260" height="120" class="entity" />
    <rect x="0" y="0" width="260" height="30" class="header" />
    <text x="10" y="20" class="title">tugas</text>
    <text x="10" y="50" class="text">id (PK)</text>
    <text x="10" y="70" class="text">judul</text>
    <text x="10" y="90" class="text">guru_id (FK)</text>
    <text x="10" y="110" class="text">kelas_id (FK)</text>
  </g>

  <g transform="translate(680,420)">
    <rect x="0" y="0" width="260" height="120" class="entity" />
    <rect x="0" y="0" width="260" height="30" class="header" />
    <text x="10" y="20" class="title">penilaian_siswas</text>
    <text x="10" y="50" class="text">id (PK)</text>
    <text x="10" y="70" class="text">siswa_id (FK)</text>
    <text x="10" y="90" class="text">guru_id (FK)</text>
    <text x="10" y="110" class="text">mapel_id (FK)</text>
  </g>

  <g transform="translate(40,540)">
    <rect x="0" y="0" width="260" height="140" class="entity" />
    <rect x="0" y="0" width="260" height="30" class="header" />
    <text x="10" y="20" class="title">bank_soals</text>
    <text x="10" y="50" class="text">id (PK)</text>
    <text x="10" y="70" class="text">guru_id (FK)</text>
    <text x="10" y="90" class="text">mapel_id (FK)</text>
    <text x="10" y="110" class="text">judul</text>
  </g>

  <g transform="translate(340,580)">
    <rect x="0" y="0" width="260" height="140" class="entity" />
    <rect x="0" y="0" width="260" height="30" class="header" />
    <text x="10" y="20" class="title">try_outs</text>
    <text x="10" y="50" class="text">id (PK)</text>
    <text x="10" y="70" class="text">guru_id (FK)</text>
    <text x="10" y="90" class="text">mapel_id (FK)</text>
    <text x="10" y="110" class="text">kelas_id (FK)</text>
  </g>

  <g transform="translate(680,560)">
    <rect x="0" y="0" width="260" height="120" class="entity" />
    <rect x="0" y="0" width="260" height="30" class="header" />
    <text x="10" y="20" class="title">try_out_soals</text>
    <text x="10" y="50" class="text">id (PK)</text>
    <text x="10" y="70" class="text">try_out_id (FK)</text>
    <text x="10" y="90" class="text">bank_soal_id (FK)</text>
  </g>

  <g transform="translate(940,560)">
    <rect x="0" y="0" width="260" height="120" class="entity" />
    <rect x="0" y="0" width="260" height="30" class="header" />
    <text x="10" y="20" class="title">jawaban_siswas</text>
    <text x="10" y="50" class="text">id (PK)</text>
    <text x="10" y="70" class="text">siswa_id (FK)</text>
    <text x="10" y="90" class="text">try_out_id (FK)</text>
    <text x="10" y="110" class="text">try_out_soal_id (FK)</text>
  </g>

  <g transform="translate(940,40)">
    <rect x="0" y="0" width="260" height="100" class="entity" />
    <rect x="0" y="0" width="260" height="30" class="header" />
    <text x="10" y="20" class="title">ppdb_years</text>
    <text x="10" y="50" class="text">id (PK)</text>
    <text x="10" y="70" class="text">year</text>
    <text x="10" y="90" class="text">source_url</text>
  </g>

  <line x1="260" y1="60" x2="340" y2="60" class="line" />
  <line x1="600" y1="60" x2="680" y2="60" class="line" />

  <line x1="460" y1="100" x2="460" y2="160" class="line" />

  <line x1="460" y1="220" x2="460" y2="260" class="line" />
  <line x1="420" y1="380" x2="340" y2="380" class="line" />
  <line x1="560" y1="380" x2="680" y2="380" class="line" />

  <line x1="140" y1="310" x2="140" y2="260" class="line" />
  <line x1="580" y1="310" x2="580" y2="260" class="line" />

  <line x1="620" y1="360" x2="720" y2="360" class="line" />
  <line x1="860" y1="360" x2="860" y2="380" class="line" />

  <line x1="550" y1="450" x2="550" y2="480" class="line" />
  <line x1="350" y1="500" x2="350" y2="540" class="line" />

  <line x1="620" y1="540" x2="620" y2="580" class="line" />
  <line x1="940" y1="600" x2="940" y2="640" class="line" />
  <line x1="940" y1="640" x2="940" y2="700" class="line" />
</svg>